Normalized EMG Linear Envelopes																
nRows=78																
nColumns=17																
																
endheader																
time	        VM	        VL	        RF	       GRA	        TA	   ADDLONG	   SEMIMEM	      BFLH	        GM	        GL	       TFL	   GLUTMAX	   GLUTMED	      PIRI	    OBTINT	        QF
0.5215	0.468243	0.524867	0.055085	0.290771	0.315874	0.184599	0.445253	0.452982	0.159769	0.125233	0.03124	0.376488	0.35358	0	0	0
0.522	0.470562	0.52807	0.055626	0.288407	0.312693	0.183483	0.442681	0.449346	0.158216	0.125566	0.031481	0.3792	0.35444	0	0	0
0.5225	0.472819	0.531222	0.056161	0.286073	0.309534	0.182358	0.440162	0.445746	0.156713	0.125927	0.031722	0.381888	0.355291	0	0	0
0.523	0.475012	0.534322	0.056688	0.283769	0.306398	0.181222	0.437698	0.442185	0.155261	0.126314	0.031961	0.384552	0.35613	0	0	0
0.5235	0.477142	0.537369	0.057208	0.281495	0.303285	0.180078	0.43529	0.438666	0.15386	0.12673	0.032199	0.387191	0.356958	0	0	0
0.524	0.479207	0.540361	0.057721	0.279251	0.300198	0.178924	0.43294	0.435191	0.152512	0.127174	0.032436	0.389804	0.357773	0	0	0
0.5245	0.481206	0.543297	0.058227	0.27704	0.297137	0.177762	0.43065	0.431763	0.151216	0.127647	0.032671	0.39239	0.358576	0	0	0
0.525	0.48314	0.546177	0.058724	0.27486	0.294103	0.176593	0.428421	0.428383	0.149973	0.128149	0.032904	0.394949	0.359366	0	0	0
0.5255	0.485007	0.548998	0.059214	0.272713	0.291098	0.175416	0.426254	0.425054	0.148784	0.128679	0.033136	0.397479	0.360142	0	0	0
0.526	0.486807	0.551761	0.059696	0.270599	0.288122	0.174233	0.424152	0.421778	0.147649	0.129239	0.033365	0.399981	0.360904	0	0	0
0.5265	0.488538	0.554464	0.060169	0.268519	0.285177	0.173045	0.422114	0.418557	0.146569	0.129829	0.033593	0.402453	0.361652	0	0	0
0.527	0.4902	0.557108	0.060635	0.266474	0.282263	0.171851	0.420142	0.415393	0.145543	0.130449	0.03382	0.404895	0.362386	0	0	0
0.5275	0.491792	0.559691	0.061092	0.264463	0.279382	0.170654	0.418238	0.412288	0.144573	0.131099	0.034044	0.407306	0.363105	0	0	0
0.528	0.493313	0.562215	0.06154	0.262488	0.276533	0.169452	0.416402	0.409244	0.143657	0.131779	0.034266	0.409685	0.363811	0	0	0
0.5285	0.494762	0.564679	0.06198	0.26055	0.273718	0.168248	0.414634	0.406262	0.142798	0.132489	0.034485	0.412031	0.364502	0	0	0
0.529	0.496139	0.567085	0.062411	0.258647	0.270938	0.167042	0.412936	0.403344	0.141995	0.133229	0.034703	0.414343	0.365179	0	0	0
0.5295	0.497443	0.569432	0.062833	0.256781	0.268193	0.165835	0.411307	0.400492	0.141248	0.134001	0.034918	0.416621	0.365842	0	0	0
0.53	0.498673	0.571721	0.063247	0.254952	0.265484	0.164627	0.409749	0.397706	0.140557	0.134802	0.03513	0.418862	0.36649	0	0	0
0.5305	0.499831	0.573953	0.063651	0.25316	0.262811	0.163418	0.408262	0.394989	0.139923	0.135634	0.03534	0.421065	0.367124	0	0	0
0.531	0.500915	0.576128	0.064046	0.251405	0.260176	0.16221	0.406845	0.392341	0.139345	0.136496	0.035548	0.42323	0.367742	0	0	0
0.5315	0.501925	0.578249	0.064432	0.249688	0.257579	0.161004	0.405499	0.389764	0.138824	0.137389	0.035752	0.425354	0.368346	0	0	0
0.532	0.502862	0.580316	0.064809	0.248009	0.255019	0.159798	0.404224	0.387258	0.13836	0.138312	0.035954	0.427436	0.368934	0	0	0
0.5325	0.503725	0.582332	0.065176	0.246367	0.252498	0.158595	0.403019	0.384826	0.137952	0.139266	0.036153	0.429476	0.369506	0	0	0
0.533	0.504516	0.584299	0.065534	0.244763	0.250017	0.157394	0.401885	0.382468	0.137602	0.140249	0.036348	0.431471	0.370062	0	0	0
0.5335	0.505234	0.586218	0.065882	0.243197	0.247574	0.156196	0.40082	0.380185	0.137308	0.141262	0.036541	0.433419	0.370602	0	0	0
0.534	0.505881	0.588091	0.066221	0.241669	0.245172	0.155001	0.399826	0.377977	0.137072	0.142305	0.036731	0.43532	0.371125	0	0	0
0.5345	0.506457	0.58992	0.06655	0.240179	0.242811	0.15381	0.3989	0.375846	0.136892	0.143378	0.036917	0.437172	0.371631	0	0	0
0.535	0.506963	0.591707	0.06687	0.238727	0.240491	0.152623	0.398043	0.373792	0.13677	0.144481	0.037101	0.438974	0.372119	0	0	0
0.5355	0.507401	0.593454	0.067179	0.237313	0.238213	0.15144	0.397254	0.371817	0.136705	0.145613	0.037281	0.440723	0.37259	0	0	0
0.536	0.50777	0.595161	0.067479	0.235937	0.235978	0.150261	0.396531	0.369919	0.136697	0.146775	0.037458	0.442419	0.373042	0	0	0
0.5365	0.508074	0.596831	0.06777	0.2346	0.233786	0.149086	0.395874	0.368101	0.136747	0.147966	0.037631	0.44406	0.373476	0	0	0
0.537	0.508312	0.598466	0.06805	0.2333	0.231639	0.147917	0.395282	0.366363	0.136855	0.149187	0.037802	0.445645	0.373892	0	0	0
0.5375	0.508485	0.600065	0.068322	0.232038	0.229536	0.146753	0.394753	0.364704	0.13702	0.150438	0.037969	0.447172	0.374288	0	0	0
0.538	0.508594	0.601632	0.068583	0.230814	0.227479	0.145594	0.394286	0.363125	0.137244	0.151717	0.038133	0.448641	0.374665	0	0	0
0.5385	0.508641	0.603167	0.068836	0.229627	0.225469	0.14444	0.393881	0.361627	0.137527	0.153027	0.038293	0.450051	0.375023	0	0	0
0.539	0.508625	0.604671	0.069079	0.228477	0.223506	0.143292	0.393534	0.360209	0.137868	0.154365	0.038451	0.4514	0.375361	0	0	0
0.5395	0.508547	0.606146	0.069313	0.227365	0.22159	0.142149	0.393246	0.358871	0.138269	0.155733	0.038605	0.452687	0.375679	0	0	0
0.54	0.508407	0.607591	0.069538	0.226289	0.219723	0.141012	0.393013	0.357614	0.138729	0.15713	0.038756	0.453911	0.375977	0	0	0
0.5405	0.508206	0.609007	0.069754	0.22525	0.217905	0.13988	0.392835	0.356436	0.139248	0.158556	0.038904	0.455071	0.376255	0	0	0
0.541	0.507944	0.610396	0.069961	0.224247	0.216137	0.138755	0.392709	0.355338	0.139828	0.160011	0.039049	0.456166	0.376512	0	0	0
0.5415	0.507621	0.611757	0.07016	0.22328	0.214419	0.137635	0.392633	0.354319	0.140468	0.161495	0.039192	0.457193	0.37675	0	0	0
0.542	0.507239	0.61309	0.070351	0.22235	0.212751	0.136521	0.392606	0.353379	0.141168	0.163008	0.039331	0.458152	0.376967	0	0	0
0.5425	0.506796	0.614397	0.070533	0.221455	0.211135	0.135414	0.392626	0.352516	0.141929	0.164549	0.039467	0.459043	0.377165	0	0	0
0.543	0.506294	0.615676	0.070708	0.220596	0.20957	0.134312	0.39269	0.351731	0.142751	0.166119	0.039599	0.459862	0.377343	0	0	0
0.5435	0.505732	0.616928	0.070875	0.219773	0.208058	0.133217	0.392797	0.351022	0.143634	0.167717	0.039729	0.46061	0.377501	0	0	0
0.544	0.505111	0.618153	0.071034	0.218985	0.206597	0.132128	0.392945	0.350389	0.144578	0.169344	0.039856	0.461284	0.37764	0	0	0
0.5445	0.504432	0.61935	0.071186	0.218233	0.205189	0.131047	0.393131	0.349831	0.145582	0.170999	0.03998	0.461882	0.37776	0	0	0
0.545	0.503695	0.62052	0.07133	0.217517	0.203834	0.129972	0.393354	0.349346	0.146648	0.172683	0.040101	0.462403	0.377862	0	0	0
0.5455	0.502901	0.621662	0.071467	0.216837	0.202532	0.128904	0.393612	0.348933	0.147775	0.174395	0.040219	0.462845	0.377948	0	0	0
0.546	0.50205	0.622775	0.071597	0.216193	0.201283	0.127844	0.393902	0.348592	0.148963	0.176134	0.040333	0.463207	0.378019	0	0	0
0.5465	0.501144	0.62386	0.071721	0.215586	0.200087	0.126792	0.394222	0.348321	0.150212	0.177902	0.040445	0.463485	0.378074	0	0	0
0.547	0.500182	0.624915	0.071837	0.215017	0.198945	0.125748	0.394569	0.348119	0.151523	0.179697	0.040554	0.46368	0.378116	0	0	0
0.5475	0.499166	0.62594	0.071948	0.214486	0.197855	0.124712	0.394942	0.347984	0.152894	0.18152	0.04066	0.463788	0.378145	0	0	0
0.548	0.498097	0.626935	0.072051	0.213993	0.196819	0.123685	0.395337	0.347916	0.154326	0.183369	0.040762	0.463808	0.378161	0	0	0
0.5485	0.496975	0.627898	0.072149	0.213538	0.195835	0.122667	0.395754	0.347913	0.155818	0.185246	0.040862	0.46374	0.378166	0	0	0
0.549	0.495801	0.628829	0.072241	0.213123	0.194905	0.121658	0.39619	0.347973	0.157371	0.187149	0.040959	0.463582	0.378159	0	0	0
0.5495	0.494576	0.629727	0.072326	0.212748	0.194027	0.120658	0.396643	0.348094	0.158984	0.189078	0.041052	0.463332	0.378143	0	0	0
0.55	0.493302	0.630591	0.072406	0.212413	0.193202	0.119669	0.397111	0.348276	0.160656	0.191033	0.041143	0.462991	0.378117	0	0	0
0.5505	0.491979	0.63142	0.072481	0.21212	0.192429	0.11869	0.397592	0.348516	0.162388	0.193014	0.04123	0.462557	0.378082	0	0	0
0.551	0.490607	0.632213	0.07255	0.211867	0.191708	0.117722	0.398084	0.348812	0.164179	0.195019	0.041314	0.462031	0.378037	0	0	0
0.5515	0.489189	0.632967	0.072614	0.211657	0.191039	0.116765	0.398584	0.349164	0.166028	0.197049	0.041395	0.461412	0.377984	0	0	0
0.552	0.487724	0.633683	0.072673	0.21149	0.190422	0.11582	0.399092	0.34957	0.167935	0.199103	0.041472	0.460699	0.377923	0	0	0
0.5525	0.486214	0.634358	0.072727	0.211365	0.189856	0.114886	0.399603	0.350028	0.1699	0.20118	0.041546	0.459892	0.377854	0	0	0
0.553	0.48466	0.634992	0.072776	0.211285	0.18934	0.113964	0.400117	0.350537	0.171921	0.203281	0.041617	0.458991	0.377777	0	0	0
0.5535	0.483063	0.635582	0.072821	0.211249	0.188874	0.113054	0.40063	0.351095	0.173999	0.205404	0.041685	0.457995	0.377692	0	0	0
0.554	0.481424	0.636128	0.072862	0.211257	0.188459	0.112157	0.401141	0.351701	0.176132	0.20755	0.041749	0.456905	0.377599	0	0	0
0.5545	0.479745	0.636628	0.072899	0.211311	0.188092	0.111273	0.401648	0.352354	0.178321	0.209717	0.041809	0.455722	0.377499	0	0	0
0.555	0.478026	0.637081	0.072932	0.21141	0.187774	0.110403	0.402148	0.353051	0.180563	0.211905	0.041867	0.454448	0.377391	0	0	0
0.5555	0.476268	0.637485	0.072962	0.211554	0.187505	0.109546	0.40264	0.353792	0.182859	0.214114	0.041921	0.453082	0.377276	0	0	0
0.556	0.474474	0.637839	0.072988	0.211744	0.187283	0.108703	0.403121	0.354575	0.185207	0.216342	0.041971	0.451628	0.377154	0	0	0
0.5565	0.472645	0.638142	0.07301	0.21198	0.187109	0.107875	0.403591	0.355398	0.187607	0.218589	0.042018	0.450086	0.377025	0	0	0
0.557	0.470781	0.638392	0.07303	0.212262	0.186982	0.107062	0.404046	0.356261	0.190058	0.220854	0.042062	0.44846	0.376889	0	0	0
0.5575	0.468885	0.638587	0.073046	0.212591	0.1869	0.106263	0.404486	0.357161	0.192558	0.223137	0.042102	0.44675	0.376748	0	0	0
0.558	0.466959	0.638727	0.07306	0.212965	0.186864	0.10548	0.404909	0.358097	0.195108	0.225436	0.042139	0.44496	0.376601	0	0	0
0.5585	0.465004	0.63881	0.073071	0.213386	0.186872	0.104713	0.405314	0.359068	0.197705	0.227751	0.042171	0.443091	0.376449	0	0	0
0.559	0.46302	0.638834	0.073079	0.213852	0.186925	0.103961	0.405698	0.360072	0.20035	0.230082	0.042201	0.441144	0.376293	0	0	0
0.5595	0.461011	0.638798	0.073084	0.214365	0.187021	0.103227	0.406063	0.361107	0.20304	0.232427	0.042226	0.439123	0.376134	0	0	0
0.56	0.458976	0.638699	0.073087	0.214923	0.187159	0.102508	0.406405	0.362171	0.205774	0.234786	0.042248	0.437029	0.375973	0	0	0
